<svg fill="none" height="44" viewBox="0 0 234 44" width="234" xmlns="http://www.w3.org/2000/svg"><rect fill="#000" height="44" rx="8" width="234"/><path d="m60.4375 15.2266v11.2734h1.4063v-4.0234h2.8359c2.1172 0 3.625-1.4922 3.625-3.6016 0-2.1484-1.4766-3.6484-3.6094-3.6484zm1.4063 1.25h2.4843c1.6328 0 2.5313.8515 2.5313 2.3984 0 1.4922-.9297 2.3516-2.5313 2.3516h-2.4843zm11.5003 10.1718c2.3984 0 3.8828-1.6562 3.8828-4.3593 0-2.711-1.4844-4.3594-3.8828-4.3594-2.3985 0-3.8828 1.6484-3.8828 4.3594 0 2.7031 1.4843 4.3593 3.8828 4.3593zm0-1.2109c-1.5938 0-2.4922-1.1563-2.4922-3.1484 0-2 .8984-3.1485 2.4922-3.1485 1.5937 0 2.4922 1.1485 2.4922 3.1485 0 1.9921-.8985 3.1484-2.4922 3.1484zm15.9534-7.3594h-1.3516l-1.6562 6.7344h-.125l-1.8828-6.7344h-1.2891l-1.8828 6.7344h-.125l-1.6562-6.7344h-1.3594l2.3594 8.4219h1.3593l1.875-6.5156h.125l1.8828 6.5156h1.3672zm4.5238 1.0391c1.3359 0 2.2265.9844 2.2578 2.4766h-4.6407c.1016-1.4922 1.0391-2.4766 2.3829-2.4766zm2.2187 5.2031c-.3516.7422-1.0859 1.1406-2.1719 1.1406-1.4297 0-2.3593-1.0547-2.4297-2.7187v-.0625h6.0547v-.5156c0-2.6172-1.3828-4.2344-3.6562-4.2344-2.3125 0-3.7969 1.7187-3.7969 4.3672 0 2.664 1.4609 4.3515 3.7969 4.3515 1.8437 0 3.1562-.8906 3.5469-2.3281zm3.2425 2.1797h1.3435v-5.2188c0-1.1874.93-2.0468 2.211-2.0468.266 0 .75.0468.86.0781v-1.3437c-.172-.0235-.454-.0391-.672-.0391-1.117 0-2.086.5781-2.336 1.3984h-.125v-1.25h-1.2815zm8.8985-7.3828c1.336 0 2.227.9844 2.258 2.4766h-4.641c.102-1.4922 1.04-2.4766 2.383-2.4766zm2.219 5.2031c-.352.7422-1.086 1.1406-2.172 1.1406-1.43 0-2.359-1.0547-2.43-2.7187v-.0625h6.055v-.5156c0-2.6172-1.383-4.2344-3.656-4.2344-2.313 0-3.797 1.7187-3.797 4.3672 0 2.664 1.461 4.3515 3.797 4.3515 1.844 0 3.156-.8906 3.547-2.3281zm6.36 2.3281c1.164 0 2.164-.5546 2.695-1.4922h.125v1.3438h1.281v-11.7656h-1.343v4.6718h-.118c-.476-.9218-1.468-1.4765-2.64-1.4765-2.141 0-3.539 1.7187-3.539 4.3594 0 2.6484 1.382 4.3593 3.539 4.3593zm.312-7.5078c1.524 0 2.477 1.2188 2.477 3.1485 0 1.9453-.946 3.1484-2.477 3.1484-1.539 0-2.461-1.1797-2.461-3.1484 0-1.961.93-3.1485 2.461-3.1485zm14.462 7.5078c2.133 0 3.531-1.7265 3.531-4.3593 0-2.6485-1.391-4.3594-3.531-4.3594-1.156 0-2.18.5703-2.641 1.4765h-.125v-4.6718h-1.344v11.7656h1.282v-1.3438h.125c.531.9376 1.531 1.4922 2.703 1.4922zm-.313-7.5078c1.539 0 2.453 1.1797 2.453 3.1485 0 1.9687-.914 3.1484-2.453 3.1484-1.531 0-2.484-1.2031-2.484-3.1484s.953-3.1485 2.484-3.1485zm6.04 10.4063c1.492 0 2.164-.5781 2.882-2.5313l3.29-8.9375h-1.43l-2.305 6.9297h-.125l-2.312-6.9297h-1.453l3.117 8.4297-.157.5c-.351 1.0156-.773 1.3828-1.546 1.3828-.188 0-.399-.0078-.563-.039v1.1484c.188.0312.422.0469.602.0469zm11.657-3.0469h8.57v-1.7422h-6.055v-.1328l5.906-8.0234v-1.375h-8.257v1.7422h5.765v.1328l-5.929 8.0234zm18.023-1.7422h-5.281v-3.1562h4.992v-1.6407h-4.992v-2.9921h5.281v-1.7422h-7.297v11.2734h7.297zm4.196 1.7422v-11.2734h-2.016v11.2734zm7.281 0v-9.5312h3.477v-1.7422h-8.961v1.7422h3.469v9.5312zm11.157 0v-7.6719h.133l5.531 7.6719h1.743v-11.2734h-1.938v7.664h-.133l-5.531-7.664h-1.75v11.2734zm13.36.1719c2.555 0 4.109-1.6719 4.109-4.4453 0-2.7657-1.562-4.4454-4.109-4.4454-2.539 0-4.109 1.6876-4.109 4.4454 0 2.7734 1.546 4.4453 4.109 4.4453zm0-1.625c-1.352 0-2.125-1.0313-2.125-2.8203 0-1.7813.773-2.8204 2.125-2.8204 1.344 0 2.117 1.0391 2.117 2.8204 0 1.789-.765 2.8203-2.117 2.8203zm16.844-7.0938h-1.93l-1.414 6.3828h-.132l-1.657-6.3828h-1.851l-1.641 6.3828h-.133l-1.422-6.3828h-1.953l2.313 8.5469h2.015l1.657-6.1562h.132l1.665 6.1562h2.039z" fill="#fff"/><path d="m23.3248 13 9.3249 16h-18.6497z" fill="#fff"/><path d="m43.5 0v44" stroke="#5e5e5e"/></svg>